<svg width="1200" height="1200" viewBox="0 0 1200 1200" fill="none" xmlns="http://www.w3.org/2000/svg">
<mask id="path-1-inside-1_248_21" fill="white">
<path d="M576.993 151.724C531.26 155.19 478.326 165.857 415.926 184.257L400.86 188.657L408.593 190.79C461.393 205.057 466.86 206.79 464.193 208.657C462.86 209.724 457.793 213.057 452.993 216.124C441.793 223.324 415.66 249.324 404.993 263.724C385.126 290.79 365.526 329.857 351.126 371.457C348.46 379.057 346.326 385.457 346.326 385.724C346.326 386.257 376.193 367.99 390.86 358.657C394.593 356.257 397.926 354.39 398.593 354.39C399.126 354.39 397.393 358.124 394.726 362.657C378.06 391.057 361.66 432.257 337.793 505.057C327.926 535.457 316.726 568.124 312.993 577.724C309.26 587.19 305.793 596.257 305.393 597.59C303.526 603.457 349.526 575.59 373.66 556.124C397.126 537.19 419.526 511.59 434.326 486.657C437.526 481.457 440.326 477.324 440.593 477.59C440.993 477.857 439.126 484.39 436.46 492.124C420.593 539.724 390.593 576.924 338.726 613.457C324.46 623.457 299.66 638.124 284.86 645.324C278.46 648.524 273.126 651.457 272.993 651.857C272.993 652.39 274.326 653.057 276.06 653.457C299.126 658.79 306.593 660.257 319.66 661.857C370.993 668.257 428.326 657.724 464.726 635.457L469.126 632.657L489.393 643.057C547.393 672.79 627.926 717.19 666.326 740.39C702.06 762.124 726.993 779.457 739.926 791.457L746.326 797.457L750.46 788.39C762.326 762.124 765.126 725.59 757.393 698.39C752.726 681.724 740.46 661.59 723.393 642.124C715.393 633.057 682.593 603.724 680.46 603.724C680.06 603.724 679.66 606.524 679.66 609.99C679.66 613.59 678.726 622.124 677.66 629.057C675.66 641.857 666.326 685.19 665.26 686.39C664.993 686.79 663.126 684.924 661.126 682.39C652.726 671.324 637.393 654.657 613.66 630.39C587.793 604.124 579.66 594.257 570.193 578.124C564.326 568.257 555.66 543.59 555.66 537.19C555.66 534.924 555.126 533.057 554.46 533.057C553.926 533.057 547.126 538.924 539.526 546.124C517.26 567.057 495.526 586.39 494.326 586.39C491.66 586.39 487.926 569.057 486.46 549.857C483.66 512.39 491.66 479.19 510.46 450.257C518.193 438.39 531.793 423.057 538.86 417.99L542.993 415.057L540.726 418.39C516.326 453.057 507.26 476.924 505.393 511.057C504.726 524.124 506.326 545.457 508.46 551.057C508.993 552.39 511.393 550.39 516.46 544.524C522.993 536.79 544.726 517.324 561.793 503.857L568.593 498.524L569.393 509.457C570.993 531.19 578.993 553.99 591.793 572.924C595.926 579.324 606.46 591.857 614.993 601.057C623.66 610.257 636.193 623.99 642.86 631.59L654.993 645.457L656.593 637.59C660.193 620.39 660.06 584.257 656.193 559.724C655.526 555.057 655.526 555.19 664.593 564.924C669.526 570.39 685.66 585.057 700.326 597.724C732.593 625.457 748.46 641.857 760.326 659.724C772.993 678.524 784.993 708.124 784.993 720.124C784.993 725.59 787.393 725.59 788.86 720.124C796.726 688.39 794.86 652.657 783.526 619.99C777.793 603.59 766.726 581.59 754.46 561.857C748.593 552.657 744.593 545.457 745.393 545.99C750.193 548.79 766.993 564.79 777.26 576.39C796.46 597.724 811.393 621.59 820.86 645.324C825.393 657.057 830.326 674.39 830.326 679.457C830.46 684.924 832.193 680.924 835.793 667.057C839.66 651.99 839.926 624.79 836.46 609.19C830.86 584.124 818.993 556.924 798.993 523.057C772.06 477.457 764.593 459.857 764.46 441.057C764.326 417.99 773.126 405.19 794.46 397.724C803.926 394.39 824.593 392.79 839.26 394.257C869.393 397.457 880.593 407.19 886.193 435.19L888.46 446.79L895.526 438.257C909.393 421.857 917.926 405.59 922.993 385.724C926.46 372.924 926.46 345.324 923.126 332.39C911.526 287.457 874.193 255.057 822.193 244.524C819.26 243.857 818.326 242.657 817.126 237.59C807.793 200.657 761.66 172.524 686.993 158.39C654.326 152.257 608.193 149.457 576.993 151.724ZM632.326 236.39C648.593 238.257 665.26 241.19 676.593 244.524C692.993 249.19 720.06 258.524 721.66 259.857C722.993 261.19 722.46 261.057 690.46 257.057C679.26 255.59 668.326 254.39 666.193 254.39C662.326 254.39 662.326 254.524 663.126 259.99C664.326 268.39 669.926 279.19 674.726 282.657C683.926 289.19 695.793 284.924 703.526 272.257C705.393 269.057 707.393 266.39 708.06 266.39C710.326 266.39 708.86 279.59 705.926 285.19C699.526 297.19 680.86 302.124 666.86 295.59C654.193 289.59 648.06 275.99 649.393 256.924L650.06 246.39L635.26 241.724C627.26 239.19 619.793 237.057 618.86 237.057C617.926 237.057 616.726 236.39 616.193 235.59C615.526 234.524 616.593 234.257 619.793 234.79C622.326 235.19 627.926 235.99 632.326 236.39ZM820.993 261.19C834.06 264.524 853.126 273.057 864.593 280.79C884.06 293.99 899.926 316.924 904.46 338.39C908.326 356.924 905.526 382.257 897.526 399.724L894.193 407.057L888.593 396.39C876.326 372.524 854.06 358.524 815.393 350.257C798.993 346.657 754.326 345.324 732.726 347.724C716.326 349.457 698.193 352.924 681.926 357.19C676.193 358.79 671.26 359.724 670.86 359.457C670.193 358.657 693.66 344.657 706.06 338.524C722.726 330.124 742.726 324.524 771.393 320.257C775.26 319.724 775.66 319.19 775.66 315.19C775.66 305.857 779.926 286.657 783.926 277.99C786.46 272.524 790.326 266.924 793.793 263.724C800.726 257.324 804.06 257.057 820.993 261.19ZM800.326 370.39C819.66 373.724 819.66 373.857 797.66 374.924C744.726 377.324 708.993 387.59 675.393 410.124C661.126 419.59 660.993 419.59 668.593 410.79C689.393 386.79 713.926 373.59 745.793 369.19C757.26 367.59 787.926 368.257 800.326 370.39Z"/>
</mask>
<path d="M576.993 151.724C531.26 155.19 478.326 165.857 415.926 184.257L400.86 188.657L408.593 190.79C461.393 205.057 466.86 206.79 464.193 208.657C462.86 209.724 457.793 213.057 452.993 216.124C441.793 223.324 415.66 249.324 404.993 263.724C385.126 290.79 365.526 329.857 351.126 371.457C348.46 379.057 346.326 385.457 346.326 385.724C346.326 386.257 376.193 367.99 390.86 358.657C394.593 356.257 397.926 354.39 398.593 354.39C399.126 354.39 397.393 358.124 394.726 362.657C378.06 391.057 361.66 432.257 337.793 505.057C327.926 535.457 316.726 568.124 312.993 577.724C309.26 587.19 305.793 596.257 305.393 597.59C303.526 603.457 349.526 575.59 373.66 556.124C397.126 537.19 419.526 511.59 434.326 486.657C437.526 481.457 440.326 477.324 440.593 477.59C440.993 477.857 439.126 484.39 436.46 492.124C420.593 539.724 390.593 576.924 338.726 613.457C324.46 623.457 299.66 638.124 284.86 645.324C278.46 648.524 273.126 651.457 272.993 651.857C272.993 652.39 274.326 653.057 276.06 653.457C299.126 658.79 306.593 660.257 319.66 661.857C370.993 668.257 428.326 657.724 464.726 635.457L469.126 632.657L489.393 643.057C547.393 672.79 627.926 717.19 666.326 740.39C702.06 762.124 726.993 779.457 739.926 791.457L746.326 797.457L750.46 788.39C762.326 762.124 765.126 725.59 757.393 698.39C752.726 681.724 740.46 661.59 723.393 642.124C715.393 633.057 682.593 603.724 680.46 603.724C680.06 603.724 679.66 606.524 679.66 609.99C679.66 613.59 678.726 622.124 677.66 629.057C675.66 641.857 666.326 685.19 665.26 686.39C664.993 686.79 663.126 684.924 661.126 682.39C652.726 671.324 637.393 654.657 613.66 630.39C587.793 604.124 579.66 594.257 570.193 578.124C564.326 568.257 555.66 543.59 555.66 537.19C555.66 534.924 555.126 533.057 554.46 533.057C553.926 533.057 547.126 538.924 539.526 546.124C517.26 567.057 495.526 586.39 494.326 586.39C491.66 586.39 487.926 569.057 486.46 549.857C483.66 512.39 491.66 479.19 510.46 450.257C518.193 438.39 531.793 423.057 538.86 417.99L542.993 415.057L540.726 418.39C516.326 453.057 507.26 476.924 505.393 511.057C504.726 524.124 506.326 545.457 508.46 551.057C508.993 552.39 511.393 550.39 516.46 544.524C522.993 536.79 544.726 517.324 561.793 503.857L568.593 498.524L569.393 509.457C570.993 531.19 578.993 553.99 591.793 572.924C595.926 579.324 606.46 591.857 614.993 601.057C623.66 610.257 636.193 623.99 642.86 631.59L654.993 645.457L656.593 637.59C660.193 620.39 660.06 584.257 656.193 559.724C655.526 555.057 655.526 555.19 664.593 564.924C669.526 570.39 685.66 585.057 700.326 597.724C732.593 625.457 748.46 641.857 760.326 659.724C772.993 678.524 784.993 708.124 784.993 720.124C784.993 725.59 787.393 725.59 788.86 720.124C796.726 688.39 794.86 652.657 783.526 619.99C777.793 603.59 766.726 581.59 754.46 561.857C748.593 552.657 744.593 545.457 745.393 545.99C750.193 548.79 766.993 564.79 777.26 576.39C796.46 597.724 811.393 621.59 820.86 645.324C825.393 657.057 830.326 674.39 830.326 679.457C830.46 684.924 832.193 680.924 835.793 667.057C839.66 651.99 839.926 624.79 836.46 609.19C830.86 584.124 818.993 556.924 798.993 523.057C772.06 477.457 764.593 459.857 764.46 441.057C764.326 417.99 773.126 405.19 794.46 397.724C803.926 394.39 824.593 392.79 839.26 394.257C869.393 397.457 880.593 407.19 886.193 435.19L888.46 446.79L895.526 438.257C909.393 421.857 917.926 405.59 922.993 385.724C926.46 372.924 926.46 345.324 923.126 332.39C911.526 287.457 874.193 255.057 822.193 244.524C819.26 243.857 818.326 242.657 817.126 237.59C807.793 200.657 761.66 172.524 686.993 158.39C654.326 152.257 608.193 149.457 576.993 151.724ZM632.326 236.39C648.593 238.257 665.26 241.19 676.593 244.524C692.993 249.19 720.06 258.524 721.66 259.857C722.993 261.19 722.46 261.057 690.46 257.057C679.26 255.59 668.326 254.39 666.193 254.39C662.326 254.39 662.326 254.524 663.126 259.99C664.326 268.39 669.926 279.19 674.726 282.657C683.926 289.19 695.793 284.924 703.526 272.257C705.393 269.057 707.393 266.39 708.06 266.39C710.326 266.39 708.86 279.59 705.926 285.19C699.526 297.19 680.86 302.124 666.86 295.59C654.193 289.59 648.06 275.99 649.393 256.924L650.06 246.39L635.26 241.724C627.26 239.19 619.793 237.057 618.86 237.057C617.926 237.057 616.726 236.39 616.193 235.59C615.526 234.524 616.593 234.257 619.793 234.79C622.326 235.19 627.926 235.99 632.326 236.39ZM820.993 261.19C834.06 264.524 853.126 273.057 864.593 280.79C884.06 293.99 899.926 316.924 904.46 338.39C908.326 356.924 905.526 382.257 897.526 399.724L894.193 407.057L888.593 396.39C876.326 372.524 854.06 358.524 815.393 350.257C798.993 346.657 754.326 345.324 732.726 347.724C716.326 349.457 698.193 352.924 681.926 357.19C676.193 358.79 671.26 359.724 670.86 359.457C670.193 358.657 693.66 344.657 706.06 338.524C722.726 330.124 742.726 324.524 771.393 320.257C775.26 319.724 775.66 319.19 775.66 315.19C775.66 305.857 779.926 286.657 783.926 277.99C786.46 272.524 790.326 266.924 793.793 263.724C800.726 257.324 804.06 257.057 820.993 261.19ZM800.326 370.39C819.66 373.724 819.66 373.857 797.66 374.924C744.726 377.324 708.993 387.59 675.393 410.124C661.126 419.59 660.993 419.59 668.593 410.79C689.393 386.79 713.926 373.59 745.793 369.19C757.26 367.59 787.926 368.257 800.326 370.39Z" fill="url(#paint0_linear_248_21)" stroke="white" stroke-width="2" mask="url(#path-1-inside-1_248_21)"/>
<path d="M797.802 310.707V310.706C804.478 308.987 812.534 305.376 818.922 301.61C822.115 299.727 824.874 297.816 826.827 296.096C827.804 295.236 828.566 294.435 829.08 293.721C829.603 292.995 829.826 292.416 829.826 291.99C829.826 291.601 829.614 291.017 829.168 290.3C828.733 289.601 828.117 288.837 827.402 288.106C825.958 286.628 824.2 285.371 822.861 285.006C822.236 284.836 821.191 284.853 819.962 285.066C818.75 285.276 817.423 285.665 816.263 286.18L816.254 286.184L815.702 286.432C812.906 287.765 809.597 290.441 806.474 293.75C803.15 297.272 800.08 301.466 798.107 305.414L798.104 305.42L795.008 311.38L797.802 310.707Z" fill="#E12E2A" stroke="white"/>
<path d="M356.493 989.89V956.222L316.058 956.09H316.056C304.724 956.024 294.225 955.99 286.427 955.99C282.527 955.99 279.303 955.998 276.988 956.015C275.831 956.023 274.901 956.034 274.229 956.046C273.541 956.059 273.156 956.074 273.055 956.086C272.881 956.108 272.611 956.109 272.392 955.93C272.142 955.725 272.126 955.431 272.155 955.244C272.184 955.057 272.267 954.868 272.361 954.697C272.46 954.519 272.59 954.325 272.745 954.121C273.285 953.411 274.194 952.484 275.362 951.496L275.879 951.068C298.94 931.872 315.123 917.586 326.521 906.088C337.921 894.589 344.511 885.901 348.41 877.905L348.411 877.904C351.73 871.132 354.375 863.45 355.165 857.919L355.166 857.915C359.79 827.788 340.772 800.013 309.398 791.673L309.393 791.672C303.646 790.087 295.556 789.123 287.476 788.857C279.398 788.591 271.378 789.025 265.767 790.212C252.646 793.129 239 800.156 230.408 808.483H230.407C219.311 819.183 212.679 833.998 210.156 854.052L210.155 854.055L209.297 860.557H250.812L251.562 853.802C252.375 845.151 256.164 837.573 262.252 831.891C268.357 826.193 274.753 823.889 283.933 824.024L283.932 824.025C294.32 824.16 303.09 828.072 308.761 834.217C314.435 840.368 316.985 848.735 314.947 857.701L314.946 857.705L314.784 858.374C313.066 865.245 310.058 870.907 300.669 880.621C290.998 890.626 274.509 904.978 245.582 929.439L213.493 956.623V989.89H356.493Z" fill="#0B0B0F" stroke="white"/>
<path d="M423.159 941.724C423.159 918.731 423.192 906.448 423.543 899.299C423.719 895.724 423.975 893.408 424.353 891.667C424.733 889.913 425.236 888.755 425.882 887.496V887.495C430.096 879.338 436.919 874.838 446.29 874.159H446.295C448.454 874.024 450.944 874.057 453.213 874.225C455.19 874.372 457.03 874.622 458.346 874.962L458.877 875.114L458.885 875.117C461.991 876.152 465.16 878.48 467.765 881.373C470.372 884.267 472.452 887.77 473.343 891.199C473.472 891.631 473.585 892.315 473.688 893.206C473.793 894.121 473.891 895.285 473.982 896.679C474.163 899.467 474.318 903.191 474.443 907.71C474.693 916.75 474.826 928.988 474.826 943.324V989.89H513.826V943.59C513.826 918.669 513.96 904.738 514.813 896.257C515.24 892.013 515.85 889.099 516.73 886.84C517.615 884.569 518.762 882.984 520.224 881.386L520.228 881.382C525.013 876.255 532.396 873.789 539.715 873.874C547.035 873.958 554.381 876.595 559.096 881.789C560.55 883.378 561.692 884.877 562.569 887.025C563.44 889.161 564.038 891.911 564.457 895.99C565.294 904.138 565.427 917.736 565.493 942.656V989.89H603.159V939.191C603.159 925.127 603.026 911.597 602.793 901.102C602.677 895.854 602.535 891.367 602.373 887.952C602.21 884.518 602.027 882.211 601.837 881.292L601.835 881.284C599.718 870.171 595.062 861.203 588.048 854.502C581.252 848.009 572.214 843.618 561.059 841.483L559.977 841.284C540.283 837.979 519.549 846.183 509.003 861.343L508.993 861.357L508.196 862.417C507.959 862.727 507.75 862.993 507.563 863.211C507.375 863.431 507.195 863.62 507.019 863.764C506.845 863.906 506.644 864.032 506.411 864.081C505.869 864.193 505.483 863.842 505.218 863.502C504.944 863.151 504.647 862.618 504.288 861.965L504.285 861.959C502.732 859.047 498.96 855.03 494.72 851.439C490.481 847.848 485.872 844.765 482.696 843.663L482.689 843.661C479.088 842.351 473.011 841.388 467.057 840.956C461.092 840.522 455.367 840.63 452.455 841.407H452.454C444.009 843.65 436.345 848.007 429.063 854.627L421.33 861.693L420.493 862.458V845.557H382.828L383.093 917.321L383.49 989.234L403.403 989.624L423.159 990.014V941.724Z" fill="#0B0B0F" stroke="white"/>
<path d="M775.16 1048.56V845.557H737.493V862.613L736.651 861.822L730.119 855.689C716.247 842.742 697.347 837.709 677.089 841.681H677.088C666.133 843.793 652.762 851.468 644.965 860.19L644.963 860.195L644.304 860.922C630.611 876.225 624.832 893.276 625.093 917.718V917.724C625.093 924.456 625.227 928.861 625.739 932.725C626.25 936.581 627.14 939.914 628.668 944.499L628.669 944.503C638.341 974.448 662.161 992.557 691.66 992.557C707.412 992.557 720.759 987.663 731.996 977.749L732.001 977.745L736.668 973.745L737.493 973.037V1048.56H775.16ZM703.398 959.157C697.166 959.224 692.264 958.622 687.918 956.992C683.568 955.36 679.811 952.714 675.844 948.749C665.039 938.213 661.313 922.439 663.532 908.114C665.751 893.793 673.933 880.803 687.086 875.921L687.092 875.919C691.301 874.426 696.701 873.789 702.029 873.991C707.353 874.192 712.656 875.234 716.669 877.137L716.67 877.136C725.745 881.335 732.9 889.856 736.137 900.643C740.773 915.691 739.204 930.202 733.163 941.018C727.117 951.842 716.595 958.954 703.401 959.157H703.398Z" fill="#0B0B0F" stroke="white"/>
<path d="M907.789 990.574C913.717 992.155 922.957 992.69 932.173 992.324C941.385 991.958 950.491 990.696 956.155 988.722V988.721C961.05 986.935 966.183 984.319 970.653 981.405C975.131 978.487 978.911 975.29 981.128 972.355L981.129 972.354C986.797 964.907 990.034 955.469 990.661 946.24C991.289 937.009 989.303 928.036 984.591 921.487C981.862 917.784 977.181 914.395 970.537 911.396C963.899 908.4 955.338 905.809 944.893 903.681H944.892C922.263 899.022 915.058 896.738 909.877 892.512L909.869 892.505C908.078 890.979 906.95 889.874 906.397 888.53C905.841 887.176 905.898 885.654 906.231 883.385C906.436 881.955 906.81 880.393 907.252 879.051C907.684 877.738 908.206 876.555 908.743 875.937V875.936C911.665 872.457 917.254 870.332 923.273 869.693C929.31 869.053 935.912 869.891 940.953 872.479L940.954 872.479C943.893 873.982 946.68 876.399 948.734 878.979C950.775 881.543 952.16 884.354 952.16 886.657C952.16 887.115 952.247 887.347 952.492 887.538C952.795 887.774 953.402 887.997 954.627 888.162C957.052 888.49 961.511 888.558 969.66 888.558H987.16V885.324C987.16 879.499 985.094 872.815 981.705 866.683C978.318 860.552 973.634 855.018 968.445 851.471C961.057 846.458 951.002 843.011 940.404 841.469C929.809 839.927 918.713 840.294 909.258 842.873H909.257C892.034 847.51 881.104 855.963 874.913 869.136C873.455 872.249 872.607 874.539 872.118 877.214C871.627 879.899 871.493 882.992 871.493 887.722C871.559 900.022 874.691 908.45 883.08 914.86C891.527 921.315 905.354 925.766 926.954 929.899H926.955C936.221 931.699 942.364 933.207 946.515 934.895C950.685 936.59 952.9 938.489 954.238 941.096L954.237 941.097C957.093 946.536 955.494 952.038 951.117 956.123C946.755 960.194 939.624 962.891 931.26 962.891C924.779 962.891 918.658 961.237 913.927 958.507C909.203 955.781 905.809 951.946 904.903 947.559L904.187 944.101L885.804 944.49L867.531 944.88L867.891 949.681C869.602 969.282 884.332 984.478 907.785 990.573L907.789 990.574Z" fill="#0B0B0F" stroke="white"/>
<path d="M811.555 818.887C815.771 821.968 821.446 823.419 828.292 822.958H828.295C840.791 822.169 849.469 815.093 850.764 804.993V804.99C852.009 795.751 848.733 787.994 842.926 783.244C837.118 778.493 828.729 776.713 819.675 779.534H819.676C808.434 783.064 801.663 793.901 803.487 804.842L803.486 804.843C804.535 811.068 807.343 815.809 811.555 818.887Z" fill="#0B0B0F" stroke="white"/>
<path d="M794.726 1048.56C806.855 1048.56 817.057 1045.91 825.058 1040.82C833.054 1035.74 838.885 1028.2 842.252 1018.37V1018.37C842.984 1016.17 843.523 1014.52 843.929 1012C844.336 1009.46 844.61 1006.04 844.793 1000.32C845.159 988.885 845.16 968.33 845.16 927.458V845.557H808.16V923.991C808.16 961.053 808.093 980.929 807.743 992.172C807.393 1003.4 806.761 1006.1 805.583 1008.73L805.582 1008.73L805.282 1009.37C802.11 1015.93 796.775 1019.95 790.149 1021.02H790.15L785.493 1021.87V1048.56H794.726Z" fill="#0B0B0F" stroke="white"/>
<defs>
<linearGradient id="paint0_linear_248_21" x1="599.301" y1="797.457" x2="599.301" y2="150.943" gradientUnits="userSpaceOnUse">
<stop stop-color="#760015"/>
<stop offset="1" stop-color="#FF3B30"/>
</linearGradient>
</defs>
</svg>
