<svg width="1200" height="1200" viewBox="0 0 1200 1200" fill="none" xmlns="http://www.w3.org/2000/svg">
<mask id="path-1-inside-1_248_21" fill="white">
<path d="M576.993 151.724C531.26 155.19 478.326 165.857 415.926 184.257L400.86 188.657L408.593 190.79C461.393 205.057 466.86 206.79 464.193 208.657C462.86 209.724 457.793 213.057 452.993 216.124C441.793 223.324 415.66 249.324 404.993 263.724C385.126 290.79 365.526 329.857 351.126 371.457C348.46 379.057 346.326 385.457 346.326 385.724C346.326 386.257 376.193 367.99 390.86 358.657C394.593 356.257 397.926 354.39 398.593 354.39C399.126 354.39 397.393 358.124 394.726 362.657C378.06 391.057 361.66 432.257 337.793 505.057C327.926 535.457 316.726 568.124 312.993 577.724C309.26 587.19 305.793 596.257 305.393 597.59C303.526 603.457 349.526 575.59 373.66 556.124C397.126 537.19 419.526 511.59 434.326 486.657C437.526 481.457 440.326 477.324 440.593 477.59C440.993 477.857 439.126 484.39 436.46 492.124C420.593 539.724 390.593 576.924 338.726 613.457C324.46 623.457 299.66 638.124 284.86 645.324C278.46 648.524 273.126 651.457 272.993 651.857C272.993 652.39 274.326 653.057 276.06 653.457C299.126 658.79 306.593 660.257 319.66 661.857C370.993 668.257 428.326 657.724 464.726 635.457L469.126 632.657L489.393 643.057C547.393 672.79 627.926 717.19 666.326 740.39C702.06 762.124 726.993 779.457 739.926 791.457L746.326 797.457L750.46 788.39C762.326 762.124 765.126 725.59 757.393 698.39C752.726 681.724 740.46 661.59 723.393 642.124C715.393 633.057 682.593 603.724 680.46 603.724C680.06 603.724 679.66 606.524 679.66 609.99C679.66 613.59 678.726 622.124 677.66 629.057C675.66 641.857 666.326 685.19 665.26 686.39C664.993 686.79 663.126 684.924 661.126 682.39C652.726 671.324 637.393 654.657 613.66 630.39C587.793 604.124 579.66 594.257 570.193 578.124C564.326 568.257 555.66 543.59 555.66 537.19C555.66 534.924 555.126 533.057 554.46 533.057C553.926 533.057 547.126 538.924 539.526 546.124C517.26 567.057 495.526 586.39 494.326 586.39C491.66 586.39 487.926 569.057 486.46 549.857C483.66 512.39 491.66 479.19 510.46 450.257C518.193 438.39 531.793 423.057 538.86 417.99L542.993 415.057L540.726 418.39C516.326 453.057 507.26 476.924 505.393 511.057C504.726 524.124 506.326 545.457 508.46 551.057C508.993 552.39 511.393 550.39 516.46 544.524C522.993 536.79 544.726 517.324 561.793 503.857L568.593 498.524L569.393 509.457C570.993 531.19 578.993 553.99 591.793 572.924C595.926 579.324 606.46 591.857 614.993 601.057C623.66 610.257 636.193 623.99 642.86 631.59L654.993 645.457L656.593 637.59C660.193 620.39 660.06 584.257 656.193 559.724C655.526 555.057 655.526 555.19 664.593 564.924C669.526 570.39 685.66 585.057 700.326 597.724C732.593 625.457 748.46 641.857 760.326 659.724C772.993 678.524 784.993 708.124 784.993 720.124C784.993 725.59 787.393 725.59 788.86 720.124C796.726 688.39 794.86 652.657 783.526 619.99C777.793 603.59 766.726 581.59 754.46 561.857C748.593 552.657 744.593 545.457 745.393 545.99C750.193 548.79 766.993 564.79 777.26 576.39C796.46 597.724 811.393 621.59 820.86 645.324C825.393 657.057 830.326 674.39 830.326 679.457C830.46 684.924 832.193 680.924 835.793 667.057C839.66 651.99 839.926 624.79 836.46 609.19C830.86 584.124 818.993 556.924 798.993 523.057C772.06 477.457 764.593 459.857 764.46 441.057C764.326 417.99 773.126 405.19 794.46 397.724C803.926 394.39 824.593 392.79 839.26 394.257C869.393 397.457 880.593 407.19 886.193 435.19L888.46 446.79L895.526 438.257C909.393 421.857 917.926 405.59 922.993 385.724C926.46 372.924 926.46 345.324 923.126 332.39C911.526 287.457 874.193 255.057 822.193 244.524C819.26 243.857 818.326 242.657 817.126 237.59C807.793 200.657 761.66 172.524 686.993 158.39C654.326 152.257 608.193 149.457 576.993 151.724ZM632.326 236.39C648.593 238.257 665.26 241.19 676.593 244.524C692.993 249.19 720.06 258.524 721.66 259.857C722.993 261.19 722.46 261.057 690.46 257.057C679.26 255.59 668.326 254.39 666.193 254.39C662.326 254.39 662.326 254.524 663.126 259.99C664.326 268.39 669.926 279.19 674.726 282.657C683.926 289.19 695.793 284.924 703.526 272.257C705.393 269.057 707.393 266.39 708.06 266.39C710.326 266.39 708.86 279.59 705.926 285.19C699.526 297.19 680.86 302.124 666.86 295.59C654.193 289.59 648.06 275.99 649.393 256.924L650.06 246.39L635.26 241.724C627.26 239.19 619.793 237.057 618.86 237.057C617.926 237.057 616.726 236.39 616.193 235.59C615.526 234.524 616.593 234.257 619.793 234.79C622.326 235.19 627.926 235.99 632.326 236.39ZM820.993 261.19C834.06 264.524 853.126 273.057 864.593 280.79C884.06 293.99 899.926 316.924 904.46 338.39C908.326 356.924 905.526 382.257 897.526 399.724L894.193 407.057L888.593 396.39C876.326 372.524 854.06 358.524 815.393 350.257C798.993 346.657 754.326 345.324 732.726 347.724C716.326 349.457 698.193 352.924 681.926 357.19C676.193 358.79 671.26 359.724 670.86 359.457C670.193 358.657 693.66 344.657 706.06 338.524C722.726 330.124 742.726 324.524 771.393 320.257C775.26 319.724 775.66 319.19 775.66 315.19C775.66 305.857 779.926 286.657 783.926 277.99C786.46 272.524 790.326 266.924 793.793 263.724C800.726 257.324 804.06 257.057 820.993 261.19ZM800.326 370.39C819.66 373.724 819.66 373.857 797.66 374.924C744.726 377.324 708.993 387.59 675.393 410.124C661.126 419.59 660.993 419.59 668.593 410.79C689.393 386.79 713.926 373.59 745.793 369.19C757.26 367.59 787.926 368.257 800.326 370.39Z"/>
</mask>
<path d="M576.993 151.724C531.26 155.19 478.326 165.857 415.926 184.257L400.86 188.657L408.593 190.79C461.393 205.057 466.86 206.79 464.193 208.657C462.86 209.724 457.793 213.057 452.993 216.124C441.793 223.324 415.66 249.324 404.993 263.724C385.126 290.79 365.526 329.857 351.126 371.457C348.46 379.057 346.326 385.457 346.326 385.724C346.326 386.257 376.193 367.99 390.86 358.657C394.593 356.257 397.926 354.39 398.593 354.39C399.126 354.39 397.393 358.124 394.726 362.657C378.06 391.057 361.66 432.257 337.793 505.057C327.926 535.457 316.726 568.124 312.993 577.724C309.26 587.19 305.793 596.257 305.393 597.59C303.526 603.457 349.526 575.59 373.66 556.124C397.126 537.19 419.526 511.59 434.326 486.657C437.526 481.457 440.326 477.324 440.593 477.59C440.993 477.857 439.126 484.39 436.46 492.124C420.593 539.724 390.593 576.924 338.726 613.457C324.46 623.457 299.66 638.124 284.86 645.324C278.46 648.524 273.126 651.457 272.993 651.857C272.993 652.39 274.326 653.057 276.06 653.457C299.126 658.79 306.593 660.257 319.66 661.857C370.993 668.257 428.326 657.724 464.726 635.457L469.126 632.657L489.393 643.057C547.393 672.79 627.926 717.19 666.326 740.39C702.06 762.124 726.993 779.457 739.926 791.457L746.326 797.457L750.46 788.39C762.326 762.124 765.126 725.59 757.393 698.39C752.726 681.724 740.46 661.59 723.393 642.124C715.393 633.057 682.593 603.724 680.46 603.724C680.06 603.724 679.66 606.524 679.66 609.99C679.66 613.59 678.726 622.124 677.66 629.057C675.66 641.857 666.326 685.19 665.26 686.39C664.993 686.79 663.126 684.924 661.126 682.39C652.726 671.324 637.393 654.657 613.66 630.39C587.793 604.124 579.66 594.257 570.193 578.124C564.326 568.257 555.66 543.59 555.66 537.19C555.66 534.924 555.126 533.057 554.46 533.057C553.926 533.057 547.126 538.924 539.526 546.124C517.26 567.057 495.526 586.39 494.326 586.39C491.66 586.39 487.926 569.057 486.46 549.857C483.66 512.39 491.66 479.19 510.46 450.257C518.193 438.39 531.793 423.057 538.86 417.99L542.993 415.057L540.726 418.39C516.326 453.057 507.26 476.924 505.393 511.057C504.726 524.124 506.326 545.457 508.46 551.057C508.993 552.39 511.393 550.39 516.46 544.524C522.993 536.79 544.726 517.324 561.793 503.857L568.593 498.524L569.393 509.457C570.993 531.19 578.993 553.99 591.793 572.924C595.926 579.324 606.46 591.857 614.993 601.057C623.66 610.257 636.193 623.99 642.86 631.59L654.993 645.457L656.593 637.59C660.193 620.39 660.06 584.257 656.193 559.724C655.526 555.057 655.526 555.19 664.593 564.924C669.526 570.39 685.66 585.057 700.326 597.724C732.593 625.457 748.46 641.857 760.326 659.724C772.993 678.524 784.993 708.124 784.993 720.124C784.993 725.59 787.393 725.59 788.86 720.124C796.726 688.39 794.86 652.657 783.526 619.99C777.793 603.59 766.726 581.59 754.46 561.857C748.593 552.657 744.593 545.457 745.393 545.99C750.193 548.79 766.993 564.79 777.26 576.39C796.46 597.724 811.393 621.59 820.86 645.324C825.393 657.057 830.326 674.39 830.326 679.457C830.46 684.924 832.193 680.924 835.793 667.057C839.66 651.99 839.926 624.79 836.46 609.19C830.86 584.124 818.993 556.924 798.993 523.057C772.06 477.457 764.593 459.857 764.46 441.057C764.326 417.99 773.126 405.19 794.46 397.724C803.926 394.39 824.593 392.79 839.26 394.257C869.393 397.457 880.593 407.19 886.193 435.19L888.46 446.79L895.526 438.257C909.393 421.857 917.926 405.59 922.993 385.724C926.46 372.924 926.46 345.324 923.126 332.39C911.526 287.457 874.193 255.057 822.193 244.524C819.26 243.857 818.326 242.657 817.126 237.59C807.793 200.657 761.66 172.524 686.993 158.39C654.326 152.257 608.193 149.457 576.993 151.724ZM632.326 236.39C648.593 238.257 665.26 241.19 676.593 244.524C692.993 249.19 720.06 258.524 721.66 259.857C722.993 261.19 722.46 261.057 690.46 257.057C679.26 255.59 668.326 254.39 666.193 254.39C662.326 254.39 662.326 254.524 663.126 259.99C664.326 268.39 669.926 279.19 674.726 282.657C683.926 289.19 695.793 284.924 703.526 272.257C705.393 269.057 707.393 266.39 708.06 266.39C710.326 266.39 708.86 279.59 705.926 285.19C699.526 297.19 680.86 302.124 666.86 295.59C654.193 289.59 648.06 275.99 649.393 256.924L650.06 246.39L635.26 241.724C627.26 239.19 619.793 237.057 618.86 237.057C617.926 237.057 616.726 236.39 616.193 235.59C615.526 234.524 616.593 234.257 619.793 234.79C622.326 235.19 627.926 235.99 632.326 236.39ZM820.993 261.19C834.06 264.524 853.126 273.057 864.593 280.79C884.06 293.99 899.926 316.924 904.46 338.39C908.326 356.924 905.526 382.257 897.526 399.724L894.193 407.057L888.593 396.39C876.326 372.524 854.06 358.524 815.393 350.257C798.993 346.657 754.326 345.324 732.726 347.724C716.326 349.457 698.193 352.924 681.926 357.19C676.193 358.79 671.26 359.724 670.86 359.457C670.193 358.657 693.66 344.657 706.06 338.524C722.726 330.124 742.726 324.524 771.393 320.257C775.26 319.724 775.66 319.19 775.66 315.19C775.66 305.857 779.926 286.657 783.926 277.99C786.46 272.524 790.326 266.924 793.793 263.724C800.726 257.324 804.06 257.057 820.993 261.19ZM800.326 370.39C819.66 373.724 819.66 373.857 797.66 374.924C744.726 377.324 708.993 387.59 675.393 410.124C661.126 419.59 660.993 419.59 668.593 410.79C689.393 386.79 713.926 373.59 745.793 369.19C757.26 367.59 787.926 368.257 800.326 370.39Z" fill="url(#paint0_linear_248_21)" stroke="white" stroke-width="4" mask="url(#path-1-inside-1_248_21)"/>
<path d="M797.692 310.218C804.309 308.513 812.314 304.926 818.668 301.179C821.846 299.305 824.576 297.412 826.497 295.721C827.459 294.874 828.191 294.102 828.675 293.429C829.176 292.733 829.326 292.26 829.326 291.99C829.326 291.745 829.176 291.261 828.743 290.564C828.332 289.902 827.741 289.167 827.045 288.456C825.622 287 823.94 285.819 822.73 285.489C822.212 285.348 821.256 285.35 820.047 285.559C818.872 285.763 817.585 286.14 816.466 286.637L816.448 286.645C813.636 287.833 810.149 290.583 806.837 294.093C803.54 297.587 800.502 301.742 798.554 305.637L798.551 305.644L798.547 305.651L795.958 310.637L797.692 310.218Z" fill="#E12E2A" stroke="white" stroke-width="2"/>
<path d="M355.993 989.39V956.72L316.056 956.59H316.053C304.722 956.524 294.224 956.49 286.427 956.49C282.528 956.49 279.305 956.498 276.992 956.515C275.835 956.523 274.908 956.534 274.239 956.546C273.904 956.553 273.637 956.559 273.439 956.566C273.34 956.569 273.262 956.573 273.203 956.577C273.142 956.58 273.118 956.582 273.117 956.583C272.9 956.61 272.456 956.629 272.075 956.317C271.63 955.952 271.619 955.441 271.661 955.168C271.703 954.897 271.817 954.648 271.923 954.456C272.036 954.249 272.183 954.034 272.347 953.818C272.996 952.965 274.126 951.846 275.553 950.689V950.688C298.615 931.492 314.784 917.217 326.166 905.736C337.548 894.253 344.096 885.61 347.961 877.685L347.962 877.683C351.164 871.15 353.725 863.786 354.592 858.367L354.67 857.849L354.672 857.838C359.254 827.985 340.418 800.437 309.269 792.157L309.261 792.154C303.566 790.583 295.519 789.621 287.46 789.356C279.403 789.091 271.431 789.526 265.876 790.701C252.832 793.6 239.272 800.587 230.756 808.841L230.754 808.843L230.242 809.343C219.557 819.904 213.126 834.452 210.652 854.115L210.651 854.121L209.867 860.057H250.364L251.064 853.764V853.763C251.887 844.987 255.732 837.293 261.911 831.526C268.121 825.73 274.646 823.387 283.941 823.524L283.94 823.525C294.449 823.662 303.354 827.621 309.128 833.878C314.911 840.146 317.51 848.681 315.434 857.812L315.433 857.82L315.268 858.5C313.522 865.478 310.458 871.213 301.029 880.968C291.337 890.996 274.826 905.365 245.905 929.821L213.993 956.854V989.39H355.993Z" fill="#0B0B0F" stroke="white" stroke-width="2"/>
<path d="M422.659 941.724C422.659 918.738 422.693 906.439 423.044 899.275C423.22 895.691 423.477 893.343 423.863 891.562C424.256 889.753 424.777 888.552 425.437 887.267L425.438 887.265C429.733 878.951 436.712 874.351 446.254 873.66H446.264C448.449 873.523 450.962 873.558 453.25 873.727C455.52 873.895 457.647 874.201 459.028 874.637L459.035 874.639L459.042 874.642C462.254 875.713 465.493 878.103 468.136 881.038C470.773 883.966 472.894 887.523 473.816 891.034L473.817 891.033C473.962 891.511 474.08 892.243 474.184 893.149C474.29 894.075 474.39 895.248 474.481 896.646C474.663 899.443 474.817 903.174 474.943 907.696C475.193 916.742 475.326 928.986 475.326 943.324V989.39H513.326V943.59C513.326 918.68 513.458 904.72 514.315 896.208C514.744 891.943 515.359 888.978 516.263 886.659C517.176 884.314 518.365 882.678 519.856 881.049L519.862 881.042C524.766 875.787 532.298 873.288 539.721 873.374C547.144 873.459 554.636 876.133 559.466 881.453C560.941 883.065 562.125 884.614 563.031 886.835C563.929 889.035 564.533 891.839 564.954 895.938C565.794 904.117 565.927 917.747 565.993 942.655V989.39H602.659V939.191C602.659 925.13 602.526 911.604 602.293 901.113C602.177 895.867 602.035 891.384 601.873 887.975C601.71 884.528 601.528 882.266 601.347 881.393L601.346 881.385L601.344 881.377C599.244 870.351 594.63 861.483 587.702 854.864C580.772 848.242 571.464 843.815 559.886 841.776C540.367 838.504 519.838 846.644 509.414 861.628L509.393 861.658C508.806 862.44 508.33 863.084 507.943 863.537C507.747 863.765 507.544 863.979 507.335 864.151C507.131 864.318 506.856 864.499 506.512 864.57C505.669 864.744 505.11 864.178 504.823 863.81C504.519 863.42 504.201 862.845 503.85 862.206L503.844 862.195C502.337 859.37 498.627 855.403 494.397 851.82C490.169 848.239 485.617 845.206 482.531 844.135L482.525 844.133L482.518 844.13C478.984 842.845 472.962 841.886 467.021 841.455C461.058 841.022 455.407 841.137 452.584 841.89H452.583C444.226 844.11 436.631 848.423 429.399 854.998L421.667 862.062L419.993 863.592V846.057H383.33L383.593 917.319L383.988 988.744L403.412 989.125L422.659 989.504V941.724Z" fill="#0B0B0F" stroke="white" stroke-width="2"/>
<path d="M774.66 1048.06V846.057H737.993V863.767L736.308 862.186L729.777 856.055C716.033 843.227 697.3 838.227 677.185 842.171L677.182 842.172L676.159 842.384C665.515 844.74 652.824 852.151 645.339 860.524L645.331 860.532L644.677 861.254C631.081 876.448 625.333 893.372 625.593 917.713V917.724C625.593 924.454 625.727 928.83 626.234 932.659C626.739 936.471 627.619 939.772 629.142 944.341L629.145 944.35C638.757 974.105 662.396 992.057 691.66 992.057C707.297 992.057 720.524 987.203 731.665 977.374L731.671 977.37L731.675 977.365L736.342 973.365L737.993 971.95V1048.06H774.66ZM703.404 959.657C697.139 959.724 692.169 959.12 687.742 957.46C683.309 955.798 679.494 953.105 675.495 949.107C664.55 938.436 660.8 922.487 663.039 908.038C665.276 893.596 673.541 880.415 686.912 875.453L686.919 875.451L686.925 875.448C691.209 873.928 696.675 873.287 702.047 873.491C707.417 873.694 712.795 874.744 716.888 876.687L716.887 876.688C726.102 880.955 733.342 889.592 736.615 900.497L736.616 900.496C741.286 915.658 739.715 930.312 733.599 941.261C727.475 952.227 716.798 959.451 703.409 959.657H703.404Z" fill="#0B0B0F" stroke="white" stroke-width="2"/>
<path d="M907.918 990.091C913.773 991.652 922.955 992.189 932.153 991.824C941.347 991.459 950.394 990.199 955.989 988.249C960.844 986.477 965.941 983.88 970.381 980.986C974.835 978.082 978.561 974.923 980.728 972.055L980.73 972.052C986.333 964.69 989.541 955.348 990.162 946.206C990.784 937.061 988.814 928.214 984.188 921.784C981.531 918.178 976.937 914.833 970.332 911.852C963.739 908.875 955.215 906.295 944.793 904.171L944.792 904.17C922.199 899.518 914.857 897.218 909.561 892.898L909.553 892.892L909.545 892.885C907.763 891.367 906.539 890.191 905.934 888.721C905.322 887.23 905.403 885.586 905.736 883.316V883.315C905.945 881.855 906.325 880.264 906.776 878.895C907.208 877.584 907.754 876.318 908.36 875.615V875.614C911.404 871.991 917.148 869.841 923.221 869.196C929.328 868.548 936.034 869.391 941.182 872.035C944.193 873.576 947.034 876.04 949.126 878.668C951.19 881.261 952.66 884.183 952.66 886.657C952.66 887.038 952.727 887.087 952.8 887.144C952.989 887.291 953.476 887.502 954.693 887.666C957.077 887.988 961.495 888.058 969.66 888.058H986.66V885.324C986.66 879.606 984.628 873.006 981.267 866.924C977.91 860.847 973.275 855.378 968.165 851.885C960.856 846.925 950.877 843.499 940.332 841.964C929.791 840.43 918.766 840.798 909.39 843.355L909.387 843.356L908.589 843.575C891.937 848.227 881.384 856.54 875.364 869.35C873.916 872.443 873.089 874.689 872.61 877.304C872.128 879.94 871.993 882.993 871.993 887.719C872.059 899.919 875.156 908.176 883.384 914.463C891.728 920.839 905.447 925.275 927.048 929.408L927.051 929.409C936.315 931.209 942.503 932.723 946.703 934.431C950.939 936.153 953.267 938.117 954.678 940.859L954.679 940.858C957.665 946.539 955.965 952.282 951.459 956.488C946.986 960.663 939.722 963.391 931.26 963.391C924.698 963.391 918.49 961.718 913.677 958.94C908.88 956.172 905.358 952.235 904.414 947.66L903.782 944.609L885.814 944.99L868.068 945.369L868.39 949.637C870.077 968.973 884.604 984.033 907.911 990.09L907.918 990.091Z" fill="#0B0B0F" stroke="white" stroke-width="2"/>
<path d="M811.85 818.483C815.95 821.479 821.5 822.914 828.259 822.459H828.263C840.589 821.68 849.012 814.73 850.268 804.93L850.269 804.924C851.492 795.844 848.273 788.263 842.61 783.631C836.943 778.996 828.732 777.236 819.824 780.012H819.823C808.808 783.472 802.2 794.079 803.98 804.76L803.979 804.761C805.01 810.877 807.76 815.495 811.85 818.483Z" fill="#0B0B0F" stroke="white" stroke-width="2"/>
<path d="M794.726 1048.06C806.784 1048.06 816.886 1045.42 824.79 1040.4C832.681 1035.38 838.445 1027.94 841.777 1018.21V1018.21C842.508 1016.02 843.036 1014.4 843.434 1011.92C843.837 1009.42 844.111 1006.02 844.294 1000.31C844.66 988.879 844.66 968.335 844.66 927.458V846.057H808.66V923.991C808.66 961.049 808.594 980.935 808.243 992.188C807.893 1003.42 807.261 1006.2 806.039 1008.93L806.038 1008.94L805.731 1009.59C802.495 1016.28 797.033 1020.41 790.24 1021.51H790.241L785.993 1022.29V1048.06H794.726Z" fill="#0B0B0F" stroke="white" stroke-width="2"/>
<defs>
<linearGradient id="paint0_linear_248_21" x1="599.301" y1="797.457" x2="599.301" y2="150.943" gradientUnits="userSpaceOnUse">
<stop stop-color="#760015"/>
<stop offset="1" stop-color="#FF3B30"/>
</linearGradient>
</defs>
</svg>
